<svg width="40" height="43" viewBox="0 0 40 43" fill="none" xmlns="http://www.w3.org/2000/svg">
<path d="M11.8402 0.605652C5.70794 0.605652 0.705261 6.06741 0.705261 12.7625V30.3307C0.705261 37.0258 5.70794 42.4875 11.8402 42.4875H27.9318C34.0641 42.4875 39.0668 37.0258 39.0668 30.3307V12.7625C39.0668 6.06741 34.0641 0.605652 27.9318 0.605652H11.8402ZM11.8402 3.82734H27.9318C32.4676 3.82734 36.1159 7.8041 36.1159 12.7625V30.3307C36.1159 35.2828 32.4734 39.2659 27.9318 39.2659H11.8402C7.30441 39.2659 3.65615 35.2891 3.65615 30.3307V12.7625C3.65615 7.8104 7.29865 3.82734 11.8402 3.82734ZM30.9518 7.04902C29.73 7.04902 28.7387 8.13131 28.7387 9.46528C28.7387 10.7993 29.73 11.8815 30.9518 11.8815C32.1737 11.8815 33.165 10.7993 33.165 9.46528C33.165 8.13131 32.1737 7.04902 30.9518 7.04902ZM19.886 10.2707C14.1975 10.2707 9.55792 15.336 9.55792 21.5466C9.55792 27.7572 14.1975 32.8225 19.886 32.8225C25.5745 32.8225 30.2141 27.7572 30.2141 21.5466C30.2141 15.336 25.5745 10.2707 19.886 10.2707ZM19.886 13.4924C23.9781 13.4924 27.2632 17.079 27.2632 21.5466C27.2632 26.0142 23.9781 29.6008 19.886 29.6008C15.794 29.6008 12.5088 26.0142 12.5088 21.5466C12.5088 17.079 15.794 13.4924 19.886 13.4924Z" fill="#EB5E28"/>
</svg>
