<svg width="30" height="29" viewBox="0 0 30 29" fill="none" xmlns="http://www.w3.org/2000/svg">
<path d="M5.91677 3.66954C6.01291 5.05152 6.25328 6.40245 6.63785 7.69127L4.71497 9.55462C4.05798 7.69127 3.64136 5.71922 3.49714 3.66954H5.91677ZM21.7165 22.3341C23.0785 22.7068 24.4726 22.9396 25.8827 23.0328V25.3465C23.7675 25.2067 21.7325 24.803 19.7936 24.1819L21.7165 22.3341ZM7.45508 0.563965H1.84667C0.965344 0.563965 0.244263 1.26271 0.244263 2.11675C0.244263 16.6975 12.4386 28.5142 27.4851 28.5142C28.3664 28.5142 29.0875 27.8154 29.0875 26.9614V21.5422C29.0875 20.6881 28.3664 19.9894 27.4851 19.9894C25.4981 19.9894 23.5592 19.6788 21.7645 19.1043C21.6043 19.0421 21.428 19.0266 21.2678 19.0266C20.8512 19.0266 20.4506 19.1819 20.1301 19.477L16.6048 22.893C12.07 20.6415 8.35242 17.0545 6.04496 12.6602L9.57025 9.24406C10.0189 8.80928 10.1471 8.20368 9.97085 7.66021C9.37796 5.92109 9.05748 4.05773 9.05748 2.11675C9.05748 1.26271 8.3364 0.563965 7.45508 0.563965Z" fill="white"/>
</svg>
