<svg width="21" height="22" viewBox="0 0 21 22" fill="none" xmlns="http://www.w3.org/2000/svg">
<path d="M4.36259 3.23162C4.42978 4.26703 4.59778 5.27918 4.86658 6.2448L3.52259 7.64086C3.0634 6.2448 2.7722 4.76729 2.6714 3.23162H4.36259ZM15.4057 17.2156C16.3577 17.4948 17.3321 17.6692 18.3176 17.7391V19.4725C16.8393 19.3678 15.4169 19.0653 14.0617 18.5999L15.4057 17.2156ZM5.43777 0.904846H1.51782C0.901822 0.904846 0.397827 1.42837 0.397827 2.06823C0.397827 12.9925 8.92094 21.8458 19.4376 21.8458C20.0536 21.8458 20.5576 21.3223 20.5576 20.6824V16.6222C20.5576 15.9823 20.0536 15.4588 19.4376 15.4588C18.0488 15.4588 16.6937 15.2262 15.4393 14.7957C15.3273 14.7491 15.2041 14.7375 15.0921 14.7375C14.8009 14.7375 14.5209 14.8539 14.2969 15.0749L11.8329 17.6343C8.66334 15.9474 6.06497 13.26 4.45218 9.96765L6.91616 7.40818C7.22976 7.08243 7.31935 6.62871 7.19616 6.22153C6.78176 4.91853 6.55776 3.52246 6.55776 2.06823C6.55776 1.42837 6.05377 0.904846 5.43777 0.904846Z" fill="#252422"/>
</svg>
