<svg class="svg__hover" width="44" height="43" viewBox="0 0 44 43" xmlns="http://www.w3.org/2000/svg">
	<path d="M40.6801 0.37918C40.2027 0.401559 39.7381 0.543532 39.3191 0.722843C38.9044 0.900954 36.5168 1.99002 32.991 3.60102C29.4652 5.21202 24.8819 7.30988 20.3386 9.39011C11.2519 13.5506 2.32276 17.6442 2.32276 17.6442L2.38784 17.6176C2.38784 17.6176 1.84892 17.8101 1.30252 18.2169C1.02933 18.4204 0.735414 18.683 0.494761 19.0659C0.254107 19.4487 0.0781735 19.9914 0.144474 20.5653C0.377353 22.5812 2.33233 23.153 2.33233 23.153L2.33998 23.1571L11.0646 26.3482C11.287 27.1413 13.7108 35.7867 14.244 37.6175C14.5384 38.6298 14.814 39.2137 15.1015 39.612C15.2454 39.8113 15.3961 39.9656 15.5628 40.0784C15.629 40.1232 15.6987 40.1568 15.7676 40.1868C15.7691 40.1875 15.77 40.1861 15.7715 40.1868C15.7799 40.1908 15.7879 40.1912 15.7963 40.195L15.7734 40.1889C15.7894 40.1958 15.8052 40.2074 15.8212 40.2134C15.8523 40.2251 15.8714 40.2247 15.9112 40.2339C16.9104 40.6067 17.7373 39.9147 17.7373 39.9147L17.7717 39.8861L23.1313 34.5737L31.8291 41.8213L31.9382 41.8744C33.4607 42.5969 34.8375 42.1938 35.5999 41.5308C36.3624 40.8677 36.6623 40.0129 36.6623 40.0129L36.6948 39.9229L43.0861 4.32312C43.2497 3.52668 43.2729 2.83823 43.1187 2.21614C42.9644 1.59405 42.5897 1.05327 42.1195 0.753527C41.6493 0.453789 41.1574 0.3568 40.6801 0.37918ZM40.7317 2.50866C40.9256 2.49907 41.0693 2.52275 41.1146 2.55162C41.1599 2.58049 41.1802 2.57669 41.2237 2.75209C41.2672 2.92749 41.2907 3.29693 41.172 3.87513L41.1682 3.88741L34.8132 39.2806C34.7982 39.3162 34.6658 39.6436 34.3634 39.9066C34.055 40.1748 33.7119 40.3841 32.8015 39.9761L23.2902 32.0494L23.0222 31.8243L23.0164 31.8305L20.172 29.5496L36.157 9.45148C36.2798 9.29744 36.3582 9.10868 36.3828 8.90802C36.4074 8.70735 36.377 8.50337 36.2954 8.32075C36.2138 8.13812 36.0845 7.98467 35.923 7.87894C35.7615 7.77321 35.5749 7.71973 35.3856 7.72498C35.2006 7.73011 35.0207 7.7911 34.8668 7.9009L11.7365 24.3804L2.99845 21.1831C2.99845 21.1831 2.13076 20.6671 2.08923 20.3075C2.08693 20.2876 2.07668 20.3057 2.12177 20.2339C2.16686 20.1622 2.2802 20.041 2.42229 19.9352C2.70648 19.7236 3.03099 19.5957 3.03099 19.5957L3.06353 19.5834L3.09607 19.5691C3.09607 19.5691 12.0257 15.4753 21.1119 11.315C25.655 9.23491 30.2374 7.13859 33.7624 5.52799C37.2864 3.9178 39.8328 2.75881 40.0484 2.66618C40.2939 2.56113 40.5379 2.51826 40.7317 2.50866ZM30.1313 13.7923L18.0091 29.0341L18.0033 29.0403C17.9844 29.0646 17.9665 29.0899 17.9497 29.116C17.9305 29.1443 17.9126 29.1737 17.8961 29.2039C17.828 29.3274 17.7844 29.4646 17.7679 29.6069C17.7679 29.6096 17.7679 29.6124 17.7679 29.6151L16.1887 37.2043C16.1625 37.1223 16.1441 37.0923 16.116 36.9957V36.9936C15.6144 35.2713 13.3277 27.1179 13.0113 25.9903L30.1313 13.7923ZM19.3777 31.5318L21.556 33.2788L18.3555 36.4495L19.3777 31.5318Z"/>
</svg>
