<svg width="41" height="43" viewBox="0 0 41 43" fill="none" xmlns="http://www.w3.org/2000/svg">
<path d="M19.9037 0.395203C16.7985 0.395203 9.11788 0.728275 5.03209 4.73298C2.09031 7.56964 0.946928 11.9087 0.783496 17.0815C0.456633 25.2577 2.25311 30.4298 5.19488 33.0996C5.84861 33.6002 7.4842 34.937 10.5894 35.9382V40.1098C10.5894 40.1098 10.5888 41.7771 11.5694 42.1108C11.7328 42.1108 11.8975 42.277 12.0609 42.277C13.0415 42.277 13.8568 41.1083 15.0008 39.9403C15.9814 38.7723 16.7992 37.9393 17.2895 37.105H19.5782H20.8869C23.9921 37.105 31.6728 36.7719 35.7586 32.7672C38.7003 29.7637 39.8443 25.4233 39.8443 19.9168C40.0078 19.0825 40.0071 18.0826 40.0071 17.0815C39.8437 10.9075 38.0472 6.73663 35.5958 4.40055C34.6152 3.56624 30.3647 0.395203 21.2125 0.395203H19.9037ZM19.5782 3.56624H20.7209H20.8869H21.0497C29.7116 3.56624 32.9802 6.40356 33.3071 6.73728C35.2683 8.40591 36.4123 12.0762 36.5757 16.9152V17.5833C36.7391 18.5845 36.7385 19.4162 36.7385 19.9168C36.5751 24.9227 35.5938 28.2612 33.6327 30.4305C30.2006 33.6008 23.0109 33.7677 21.0497 33.7677H19.9037H19.741H19.5782H17.9438L15.3296 36.7725L13.6953 38.6074L13.3665 39.106C13.0396 39.4397 12.5506 40.1091 12.2237 40.276V39.9403V32.7672C8.95509 31.9329 7.64763 30.7642 7.32077 30.4305C5.03272 28.4281 3.72527 23.5891 4.05213 17.0815V15.4128C4.379 11.4081 5.36087 8.73898 6.99518 6.90349C10.4273 3.7331 17.617 3.56624 19.5782 3.56624ZM19.4154 7.23591C18.5982 7.23591 18.5982 8.40591 19.4154 8.40591C25.4623 8.40591 30.6928 12.5762 30.6928 20.4187C30.6928 21.253 31.8355 21.253 31.8355 20.4187C31.8355 11.9087 26.2795 7.06905 19.4154 7.23591ZM12.9387 8.78069C12.5914 8.73898 12.225 8.82045 11.8981 9.07075C10.2638 9.90506 8.62759 11.5763 9.11788 13.4118C9.11788 13.4118 9.44602 14.9116 11.2438 18.082C12.2244 19.5837 13.0409 20.9199 13.858 21.9211C14.6752 23.0892 15.982 24.4234 17.2895 25.4246C19.9044 27.5938 23.9921 29.7637 25.7898 30.2642C27.4242 30.7648 29.2213 29.0942 30.0384 27.4256C30.3653 26.7582 30.2006 25.9252 29.5469 25.4246C28.5663 24.4234 26.9339 23.2567 25.7898 22.5892C24.9727 22.0886 23.9908 22.4211 23.664 22.9216L22.8468 23.9222C22.5199 24.4228 21.704 24.4241 21.704 24.4241C16.3108 22.9223 14.838 17.2477 14.838 17.2477C14.838 17.2477 14.8393 16.5815 15.3296 16.0809L16.3095 15.2466C16.7998 14.9129 17.1254 13.9104 16.6351 13.0761C16.3082 12.5755 15.8199 11.5756 15.3296 11.0751C14.8393 10.4076 13.858 9.24022 13.858 9.24022C13.6129 8.98993 13.286 8.82241 12.9387 8.78069ZM20.5581 10.5732C19.741 10.4063 19.5782 11.7432 20.3953 11.7432C24.9714 12.0769 27.5876 15.2473 27.4242 19.252C27.2607 20.0863 28.5669 20.0863 28.5669 19.252C28.7303 14.5798 25.7879 10.74 20.5581 10.5732ZM21.0497 13.7442C20.2325 13.5773 20.2325 14.9109 21.0497 14.9109C23.0109 14.9109 23.9895 16.0796 23.9895 18.082C24.153 18.9163 25.2983 18.9163 25.2983 18.082C25.1348 15.4122 23.6646 13.7442 21.0497 13.7442Z" fill="white"/>
</svg>
